<svg xmlns="http://www.w3.org/2000/svg" xmlns:xlink="http://www.w3.org/1999/xlink" viewBox="0 0 49.69 49.58"><defs><style>.a{fill:#fff;}.b{mask:url(#a);}.c,.d,.e,.f,.g,.h,.j,.k,.m,.n,.p,.q,.s,.t,.v,.w{fill-rule:evenodd;}.c{fill:url(#b);}.d{fill:url(#c);}.e{fill:url(#d);}.f{fill:url(#e);}.g,.h{fill:url(#f);}.h{fill-opacity:0.1;}.i{opacity:0.5;}.j{fill:url(#h);}.k{fill-opacity:0.5;}.l{opacity:0.54;}.m{fill:url(#i);}.n{fill-opacity:0.5;}.o{opacity:0.56;}.p{fill:url(#j);}.r{opacity:0.58;}.s{fill:url(#k);}.t{fill-opacity:0.5;}.u{opacity:0.18;}.v{fill:url(#l);}.w{fill-opacity:0.77;}.x{fill:#4c9ce5;}</style><mask id="a" x="-0.15" y="-0.06" width="50" height="49.78" maskUnits="userSpaceOnUse"><g transform="translate(-0.15 -0.17)"><rect class="a" y="0.11" width="50" height="49.78"/></g></mask><linearGradient id="b" x1="-260.88" y1="418.62" x2="-261.88" y2="418.58" gradientTransform="matrix(19.12, 16.04, 22.97, -27.38, -4609.74, 15675.52)" gradientUnits="userSpaceOnUse"><stop offset="0" stop-color="#ff5c34"/><stop offset="1" stop-color="#eb0256"/></linearGradient><linearGradient id="c" x1="-267.55" y1="416.89" x2="-267.19" y2="417.74" gradientTransform="matrix(28.46, 23.88, 16.09, -19.18, 910.74, 14422.82)" gradientUnits="userSpaceOnUse"><stop offset="0" stop-color="#a63fdb"/><stop offset="1" stop-color="#ff257e"/></linearGradient><linearGradient id="d" x1="-262.93" y1="418.61" x2="-262.13" y2="418.43" gradientTransform="matrix(20.5, 17.2, 22.28, -26.55, -3908.58, 15660.88)" gradientUnits="userSpaceOnUse"><stop offset="0" stop-color="#00fff0"/><stop offset="1" stop-color="#0087ff"/></linearGradient><linearGradient id="e" x1="-265.03" y1="418.35" x2="-265.64" y2="417.71" gradientTransform="matrix(24.46, 20.52, 18.69, -22.27, -1283.9, 14773.03)" gradientUnits="userSpaceOnUse"><stop offset="0" stop-color="#17c934"/><stop offset="1" stop-color="#03ff6e"/></linearGradient><linearGradient id="f" x1="-265.63" y1="416.8" x2="-265.83" y2="417.92" gradientTransform="matrix(25.11, 21.07, 16.23, -19.35, -78.2, 13684.95)" gradientUnits="userSpaceOnUse"><stop offset="0" stop-color="#ffb000"/><stop offset="1" stop-color="#ff7725"/></linearGradient><linearGradient id="h" x1="-253.29" y1="416.55" x2="-253.48" y2="417.67" gradientTransform="matrix(13.29, 11.15, 15.28, -18.21, -2972.62, 10437.49)" xlink:href="#f"/><linearGradient id="i" x1="-267.08" y1="438.33" x2="-265.05" y2="438.2" gradientTransform="matrix(-6.5, 16.09, 22.04, 8.9, -11349.49, 402.43)" gradientUnits="userSpaceOnUse"><stop offset="0" stop-color="#9ee85d"/><stop offset="1" stop-color="#0ed061"/></linearGradient><linearGradient id="j" x1="-296.43" y1="435.89" x2="-296.89" y2="437.1" gradientTransform="matrix(-17.33, -0.91, -1.24, 23.74, -4573.65, -10591.79)" gradientUnits="userSpaceOnUse"><stop offset="0" stop-color="#21efe3"/><stop offset="1" stop-color="#2598ff"/></linearGradient><linearGradient id="k" x1="-303.42" y1="413.57" x2="-305.31" y2="413.41" gradientTransform="matrix(-3.9, -16.91, -23.16, 5.35, 8404.4, -7320.91)" xlink:href="#c"/><linearGradient id="l" x1="-276.15" y1="402.12" x2="-277.15" y2="402.07" gradientTransform="matrix(14.87, -8.94, -12.24, -20.37, 9055.2, 5734.87)" xlink:href="#b"/></defs><title>pixelfed-icon-color</title><g class="b"><path class="c" d="M25,25A12.5,12.5,0,0,0,7.62,22.11,12.34,12.34,0,0,0,5,39.41l.31.42a24.77,24.77,0,0,1-.35-29.75l.12-.16A12.48,12.48,0,0,1,25,25Z" transform="translate(-0.15 -0.17)"/><path class="d" d="M25,25a12.24,12.24,0,0,0-7.6,15.71,12.57,12.57,0,0,0,15.83,7.78l.43-.15A25.21,25.21,0,0,1,5.29,39.83L5,39.41a12.34,12.34,0,0,1,2.64-17.3A12.5,12.5,0,0,1,25,25Z" transform="translate(-0.15 -0.17)"/><path class="e" d="M25,25a12.6,12.6,0,0,0,12.5,12.47A12.24,12.24,0,0,0,49.84,25.11V25A24.41,24.41,0,0,1,33.65,48.3l-.43.15a12.57,12.57,0,0,1-15.83-7.78A12.24,12.24,0,0,1,25,25Z" transform="translate(-0.15 -0.17)"/><path class="f" d="M25,25A12.29,12.29,0,0,0,40.6,17.1,12.54,12.54,0,0,0,32.53,1.43L32,1.25A25.19,25.19,0,0,1,49.83,25v.16A12.24,12.24,0,0,1,37.49,37.43,12.6,12.6,0,0,1,25,25Z" transform="translate(-0.15 -0.17)"/><path class="g" d="M25,25a12.48,12.48,0,0,0-19.93-15l-.12.16c.3-.4.6-.79.92-1.17A24.67,24.67,0,0,1,32,1.25l.54.18A12.54,12.54,0,0,1,40.6,17.1,12.29,12.29,0,0,1,25,25Z" transform="translate(-0.15 -0.17)"/><path class="h" d="M25,25a12.48,12.48,0,0,0-19.93-15l-.12.16c.3-.4.6-.79.92-1.17A24.67,24.67,0,0,1,32,1.25l.54.18A12.54,12.54,0,0,1,40.6,17.1,12.29,12.29,0,0,1,25,25Z" transform="translate(-0.15 -0.17)"/><g class="i"><path class="j" d="M32.33,1.36l.2.07A12.54,12.54,0,0,1,40.6,17.1,12.29,12.29,0,0,1,25,25a12.16,12.16,0,0,0,1.48-2.55A10.91,10.91,0,0,0,35.59,3.27,11.25,11.25,0,0,0,32.33,1.36Z" transform="translate(-0.15 -0.17)"/><path class="k" d="M32.33,1.36l.2.07A12.54,12.54,0,0,1,40.6,17.1,12.29,12.29,0,0,1,25,25a12.16,12.16,0,0,0,1.48-2.55A10.91,10.91,0,0,0,35.59,3.27,11.25,11.25,0,0,0,32.33,1.36Z" transform="translate(-0.15 -0.17)"/></g><g class="l"><path class="m" d="M49.8,24.75V25A12.54,12.54,0,0,1,37.39,37.47a12.28,12.28,0,0,1-12.3-12.41,12.32,12.32,0,0,0,2.89.61,10.9,10.9,0,0,0,21,2.77A11.29,11.29,0,0,0,49.8,24.75Z" transform="translate(-0.15 -0.17)"/><path class="n" d="M49.8,24.75V25A12.54,12.54,0,0,1,37.39,37.47a12.28,12.28,0,0,1-12.3-12.41,12.32,12.32,0,0,0,2.89.61,10.9,10.9,0,0,0,21,2.77A11.29,11.29,0,0,0,49.8,24.75Z" transform="translate(-0.15 -0.17)"/></g><g class="o"><path class="p" d="M33.39,48.28l-.19.07a12.54,12.54,0,0,1-15.87-7.66A12.28,12.28,0,0,1,25.06,25,12.31,12.31,0,0,0,25.41,28a10.91,10.91,0,0,0,4.23,20.77A11.1,11.1,0,0,0,33.39,48.28Z" transform="translate(-0.15 -0.17)"/><path class="q" d="M33.39,48.28l-.19.07a12.54,12.54,0,0,1-15.87-7.66A12.28,12.28,0,0,1,25.06,25,12.31,12.31,0,0,0,25.41,28a10.91,10.91,0,0,0,4.23,20.77A11.1,11.1,0,0,0,33.39,48.28Z" transform="translate(-0.15 -0.17)"/></g><g class="r"><path class="s" d="M4.86,39.32l-.11-.16a12.53,12.53,0,0,1,3-17.37,12.28,12.28,0,0,1,17.2,3.11,12.42,12.42,0,0,0-2.72,1.15,10.91,10.91,0,0,0-18.8,9.79A11.1,11.1,0,0,0,4.86,39.32Z" transform="translate(-0.15 -0.17)"/><path class="t" d="M4.86,39.32l-.11-.16a12.53,12.53,0,0,1,3-17.37,12.28,12.28,0,0,1,17.2,3.11,12.42,12.42,0,0,0-2.72,1.15,10.91,10.91,0,0,0-18.8,9.79A11.1,11.1,0,0,0,4.86,39.32Z" transform="translate(-0.15 -0.17)"/></g><g class="u"><path class="v" d="M5,10.24l.12-.16A12.54,12.54,0,0,1,22.53,7.55a12.27,12.27,0,0,1,2.36,17.31A12.57,12.57,0,0,0,23,22.64,10.91,10.91,0,0,0,7.84,7.78,11.22,11.22,0,0,0,5,10.24Z" transform="translate(-0.15 -0.17)"/><path class="w" d="M5,10.24l.12-.16A12.54,12.54,0,0,1,22.53,7.55a12.27,12.27,0,0,1,2.36,17.31A12.57,12.57,0,0,0,23,22.64,10.91,10.91,0,0,0,7.84,7.78,11.22,11.22,0,0,0,5,10.24Z" transform="translate(-0.15 -0.17)"/></g><ellipse class="x" cx="20.86" cy="26.25" rx="4.33" ry="2.96"/><ellipse class="x" cx="30.85" cy="26.25" rx="4.33" ry="2.96"/><path class="a" d="M38.94,13.82c.16-.88-.6-.69-.84-.62l-.07,0h0L30.6,15.74h0a2.64,2.64,0,0,1-1.22.07h0a13.29,13.29,0,0,0-6.7.08h0a2.17,2.17,0,0,1-.7,0l-8.08-2.73h0c-.76-.26-.68.56-.68.56L15,21.09a3.6,3.6,0,0,1-.1,1.41s0,0,0,0a9.36,9.36,0,0,0-.68,3.5c0,5.87,5.37,10.63,12,10.63s12-4.76,12-10.63a9.66,9.66,0,0,0-.59-3.27.06.06,0,0,1,0,0,4.91,4.91,0,0,1-.06-1.53ZM16.22,20.74c-.51-2.43-2.08-6.47,4.2-3.67A9.54,9.54,0,0,0,16.22,20.74Zm19.86,0a9.54,9.54,0,0,0-4.19-3.67C38.17,14.27,36.59,18.31,36.08,20.74Z" transform="translate(-0.15 -0.17)"/></g></svg>